<svg xmlns="http://www.w3.org/2000/svg" width="60.979" height="12.072" viewBox="0 0 60.979 12.072">
  <path id="Icon_ionic-ios-arrow-round-forward" data-name="Icon ionic-ios-arrow-round-forward" d="M14.342,11.483a.822.822,0,0,0-.006,1.157l3.823,3.829-57.427.006a.814.814,0,0,0-.811.817.814.814,0,0,0,.811.817l57.42-.006L14.33,21.932a.827.827,0,0,0,.006,1.157.814.814,0,0,0,1.151-.006l5.181-5.218h0a.918.918,0,0,0,.17-.258.78.78,0,0,0,.063-.314.819.819,0,0,0-.233-.572L15.487,11.5A.8.8,0,0,0,14.342,11.483Z" transform="translate(40.079 -11.252)" fill="#13102c"/>
</svg>
