<svg xmlns="http://www.w3.org/2000/svg" width="31.721" height="31.721" viewBox="0 0 31.721 31.721">
  <path id="facebook_1_" data-name="facebook (1)" d="M27.446,0H4.275A4.274,4.274,0,0,0,0,4.274V27.446a4.274,4.274,0,0,0,4.274,4.274H15.7l.019-11.335H12.777a.7.7,0,0,1-.695-.692l-.014-3.654a.7.7,0,0,1,.695-.7H15.7V11.811c0-4.1,2.5-6.328,6.157-6.328h3a.7.7,0,0,1,.695.695V9.259a.7.7,0,0,1-.694.695H23.019c-1.988,0-2.373.945-2.373,2.331v3.056h4.368a.7.7,0,0,1,.69.777l-.433,3.654a.7.7,0,0,1-.69.613H20.666l-.019,11.335h6.8a4.274,4.274,0,0,0,4.274-4.274V4.274A4.275,4.275,0,0,0,27.446,0Z" transform="translate(0)" fill="#475993"/>
</svg>
