<svg xmlns="http://www.w3.org/2000/svg" width="60.979" height="12.072" viewBox="0 0 60.979 12.072">
  <path id="Icon_left_arrow" data-name="Icon_left arrow" d="M-33.522,11.483a.822.822,0,0,1,.006,1.157l-3.823,3.829,57.427.006a.817.817,0,0,1,0,1.635l-57.42-.006,3.823,3.829a.827.827,0,0,1-.006,1.157.814.814,0,0,1-1.151-.006l-5.181-5.218h0a.918.918,0,0,1-.17-.258.78.78,0,0,1-.063-.314.819.819,0,0,1,.233-.572l5.181-5.218A.8.8,0,0,1-33.522,11.483Z" transform="translate(40.079 -11.252)" opacity="0.42"/>
</svg>
