<svg xmlns="http://www.w3.org/2000/svg" width="109.78" height="109.684" viewBox="0 0 109.78 109.684">
  <g id="modular_1_" data-name="modular (1)" transform="translate(1.548 1.5)">
    <path id="Path_20205" data-name="Path 20205" d="M155.061,39.48a3.125,3.125,0,0,0,2.707,1.563h6.918v7.549l-.916-.916a3.125,3.125,0,0,0-4.42,4.42l6.251,6.251a3.125,3.125,0,0,0,4.42,0l6.251-6.251a3.125,3.125,0,1,0-4.42-4.42l-.915.916V41.042h6.918a3.125,3.125,0,0,0,2.707-1.563l10.044-17.4a3.125,3.125,0,0,0,0-3.126l-10.044-17.4A3.125,3.125,0,0,0,177.855,0H157.768a3.125,3.125,0,0,0-2.707,1.563l-10.044,17.4a3.125,3.125,0,0,0,0,3.126Zm4.511-33.229H176.05l8.239,14.27-8.239,14.27H159.572l-8.239-14.27Z" transform="translate(-114.469 0)" fill="#13102c" stroke="#fff" stroke-width="3"/>
    <path id="Path_20206" data-name="Path 20206" d="M106.265,250.5l-10.043-17.4a3.125,3.125,0,0,0-2.707-1.563H73.428a3.125,3.125,0,0,0-2.707,1.563l-9.141,15.833H45.1l-9.141-15.833a3.126,3.126,0,0,0-2.707-1.563H13.169a3.125,3.125,0,0,0-2.707,1.563L.419,250.5a3.125,3.125,0,0,0,0,3.126l10.043,17.4a3.126,3.126,0,0,0,2.707,1.563H31.451l9.141,15.833a3.126,3.126,0,0,0,2.707,1.563H63.385a3.125,3.125,0,0,0,2.707-1.563l9.141-15.833H93.515a3.125,3.125,0,0,0,2.707-1.563l10.043-17.4A3.125,3.125,0,0,0,106.265,250.5ZM14.973,266.334l-8.239-14.27,8.239-14.27H31.451l8.239,14.27-8.239,14.27H14.973Zm46.608,17.4H45.1l-8.239-14.27L45.1,255.19H61.58l8.239,14.27Zm30.13-17.4H75.233l-8.239-14.27,8.239-14.27H91.711l8.239,14.27Z" transform="translate(0 -183.297)" fill="#13102c" stroke="#fff" stroke-width="3"/>
  </g>
</svg>
