<svg xmlns="http://www.w3.org/2000/svg" width="90.398" height="90.398" viewBox="0 0 90.398 90.398">
  <g id="Group_79768" data-name="Group 79768" transform="translate(1153 -992)">
    <path id="Path_20199" data-name="Path 20199" d="M-1131.813,1082.4h-18.539a4.5,4.5,0,0,1-2.648-2.648v-18.539a3.724,3.724,0,0,1,3.552-2.647c5.589,0,11.179-.017,16.768.008a3.406,3.406,0,0,1,3.509,3.526c.028,1.911,0,3.824.009,5.736,0,.281.031.562.048.845h15.492v-15.606a2.445,2.445,0,0,0-.338-.06c-1.618-.006-3.236.006-4.854-.019a7.41,7.41,0,0,1-1.747-.174,4.116,4.116,0,0,1-3.037-4.239c-.03-1.432-.006-2.865-.006-4.332-1.018-.127-1.762-.212-2.357.852a3.7,3.7,0,0,1-4.41,1.5,3.905,3.905,0,0,1-2.743-3.8,3.911,3.911,0,0,1,2.817-3.743,3.941,3.941,0,0,1,4.42,1.572c.661.982,1.038,1.1,2.192.723v-5.486h-1.129q-7.81,0-15.621,0c-1.591,0-1.971-.39-1.971-1.985q0-8.516,0-17.032v-1.022c-2.085,0-4.082-.08-6.07.021-2.149.11-3.716-.591-4.524-2.67V994.648a4.5,4.5,0,0,1,2.648-2.648h18.539c1.422.619,2.57,1.526,2.614,3.2.072,2.675.042,5.353.02,8.03a1.278,1.278,0,0,1-1.316,1.362,1.318,1.318,0,0,1-1.312-1.373c-.017-.234-.006-.471-.006-.706,0-2.236-.015-4.472.007-6.707.008-.824-.338-1.166-1.162-1.164q-8.119.021-16.238,0c-.831,0-1.155.356-1.152,1.173q.021,8.119,0,16.238c0,.768.3,1.14,1.095,1.139q8.163-.014,16.326,0c.774,0,1.143-.317,1.128-1.106q-.029-1.456,0-2.912c.02-.964.541-1.53,1.347-1.514.77.015,1.271.565,1.291,1.481.022,1.029.019,2.059,0,3.089a3.446,3.446,0,0,1-3.62,3.6c-2.029.02-4.059,0-6.089,0h-.831v17.307h16.1c0-.933-.007-1.783,0-2.634.017-1.823-.03-3.65.083-5.467a3.878,3.878,0,0,1,3.549-3.565c1.317-.1,2.644-.063,3.967-.079.785-.009,1.571,0,2.464,0,0-1.516-.021-2.919.011-4.322a1.124,1.124,0,0,0-.65-1.181,3.864,3.864,0,0,1-1.853-4.453,3.949,3.949,0,0,1,3.858-2.908,3.946,3.946,0,0,1,3.776,2.9,3.864,3.864,0,0,1-1.842,4.458,1.121,1.121,0,0,0-.66,1.176c.038,1.176.008,2.353.015,3.53,0,.25.046.5.068.721h7.165V1020.1q0-7.81,0-15.62c0-1.478.418-1.883,1.895-1.884q7.148,0,14.3,0h1.021c0-2.085.08-4.082-.021-6.07-.109-2.149.592-3.716,2.67-4.524h18.538a4.5,4.5,0,0,1,2.648,2.648v18.539a3.76,3.76,0,0,1-3.641,2.651c-5.531-.01-11.062.008-16.592-.01a3.428,3.428,0,0,1-3.6-3.619c-.02-2.03,0-4.06,0-6.09v-.826h-14.48v16.1h2.02c.824,0,1.648-.017,2.471,0a4.161,4.161,0,0,1,4.421,4.426c.031,1.372.005,2.745.005,4.22,1.908,0,3.694-.02,5.48.012a1.136,1.136,0,0,0,1.169-.667,3.885,3.885,0,0,1,5.12-1.581,3.975,3.975,0,0,1,2.23,3.97,4.01,4.01,0,0,1-3.079,3.458,3.994,3.994,0,0,1-4.264-1.814c-.173-.272-.438-.681-.67-.687-1.959-.055-3.92-.031-5.932-.031v4.487h.992q7.9,0,15.8,0c1.587,0,1.959.379,1.959,1.989q0,9.179,0,18.358v1.022c2.084,0,4.081.08,6.069-.022,2.149-.11,3.717.591,4.524,2.67v18.539a4.5,4.5,0,0,1-2.648,2.648h-18.538c-1.324-.575-2.508-1.4-2.574-2.938-.121-2.82-.074-5.647-.042-8.471a1.185,1.185,0,0,1,1.278-1.2,1.247,1.247,0,0,1,1.314,1.175,5.06,5.06,0,0,1,.023.793c0,2.266.015,4.532-.006,6.8-.008.8.27,1.206,1.122,1.2q8.166-.019,16.332,0c.726,0,1.1-.3,1.095-1.047q-.008-8.21,0-16.42c0-.734-.321-1.079-1.063-1.078q-8.21.009-16.42,0c-.743,0-1.072.346-1.062,1.08.014,1,.022,2,0,3a1.318,1.318,0,0,1-1.323,1.451,1.322,1.322,0,0,1-1.312-1.462q-.036-1.588,0-3.178a3.434,3.434,0,0,1,3.512-3.53c1.589-.029,3.178-.006,4.767-.007h2.241V1039.9H-1092c0,1.877-.067,3.7.012,5.518.287,6.623-.969,7.9-7.555,7.589-.457-.022-.916,0-1.461,0,0,1.808.015,3.479-.009,5.15a1,1,0,0,0,.606,1.026,3.882,3.882,0,0,1,1.883,4.52,3.932,3.932,0,0,1-3.794,2.875,3.926,3.926,0,0,1-3.808-2.853,3.955,3.955,0,0,1,1.693-4.457c.278-.178.723-.422.731-.647.06-1.84.034-3.682.034-5.548h-7.223v1.1q0,7.548,0,15.1c0,1.779-.346,2.126-2.11,2.127q-7.548,0-15.1,0h-1.069c0,2.253-.08,4.371.022,6.481C-1129.038,1080.022-1129.734,1081.59-1131.813,1082.4Zm24.008-32.047c3.705,0,7.41.006,11.115,0,1.536,0,2.035-.484,2.037-1.986q.012-11.159,0-22.318c0-1.51-.5-1.992-2.03-1.994q-11.115-.01-22.23,0c-1.568,0-2.037.483-2.038,2.075q-.008,11.071,0,22.142c0,1.626.467,2.08,2.12,2.083Q-1113.318,1050.358-1107.8,1050.351Zm33.316-37.164q3.969,0,7.938,0c1.1,0,1.3-.2,1.3-1.273q0-7.982,0-15.964c0-1.1-.2-1.3-1.274-1.3q-7.982,0-15.964,0c-1.1,0-1.3.2-1.3,1.274q0,7.982,0,15.964c0,1.1.2,1.3,1.274,1.3Q-1078.5,1013.192-1074.488,1013.187Zm-66.686,66.562q4.057,0,8.114,0c1.034,0,1.245-.209,1.245-1.238q.006-8.026,0-16.052c0-1.034-.209-1.245-1.238-1.245q-8.026-.006-16.052,0c-1.034,0-1.245.209-1.245,1.238q-.006,8.026,0,16.052c0,1.034.209,1.243,1.238,1.245C-1146.466,1079.753-1143.82,1079.749-1141.174,1079.749Zm28.956-68.554a1.247,1.247,0,0,0-1.282,1.266,1.246,1.246,0,0,0,1.244,1.3,1.252,1.252,0,0,0,1.326-1.31A1.247,1.247,0,0,0-1112.218,1011.2Zm-16.965,32.938a1.246,1.246,0,0,0,1.3-1.245,1.25,1.25,0,0,0-1.223-1.326,1.255,1.255,0,0,0-1.347,1.289A1.247,1.247,0,0,0-1129.183,1044.134Zm26.881,17.2a1.248,1.248,0,0,0-1.311,1.238,1.251,1.251,0,0,0,1.216,1.332,1.254,1.254,0,0,0,1.354-1.281A1.247,1.247,0,0,0-1102.3,1061.338Zm20.353-31.256a1.311,1.311,0,0,0-1.3,1.274,1.306,1.306,0,0,0,1.354,1.3,1.317,1.317,0,0,0,1.262-1.314A1.325,1.325,0,0,0-1081.95,1030.082Z" fill="#13102c"/>
    <path id="Path_20200" data-name="Path 20200" d="M-746.023,1405.543c0-1.412-.014-2.824,0-4.235a2.107,2.107,0,0,1,2.359-2.338q4.279-.022,8.558,0a2.084,2.084,0,0,1,2.314,2.292q.031,4.323,0,8.646a2.084,2.084,0,0,1-2.313,2.292q-4.279.027-8.559,0a2.107,2.107,0,0,1-2.36-2.337C-746.037,1408.425-746.023,1406.984-746.023,1405.543Zm10.551-3.879h-7.846v7.83h7.846Z" transform="translate(-335.118 -335.106)" fill="#13102c"/>
    <path id="Path_20201" data-name="Path 20201" d="M-1116.457,1035.2c-1.412,0-2.824.014-4.235,0a2.107,2.107,0,0,1-2.337-2.359q-.023-4.279,0-8.558a2.084,2.084,0,0,1,2.292-2.314q4.323-.031,8.647,0a2.084,2.084,0,0,1,2.292,2.313q.027,4.279,0,8.558a2.107,2.107,0,0,1-2.337,2.36C-1113.575,1035.214-1115.016,1035.2-1116.457,1035.2Zm-3.864-10.556v7.835h7.831v-7.835Z" transform="translate(-24.669 -24.662)" fill="#13102c"/>
    <path id="Path_20202" data-name="Path 20202" d="M-953.816,1191.083v15.645h15.593v-15.647c-.6,0-1.208.015-1.811,0-1.075-.033-1.621-.5-1.609-1.34.012-.806.543-1.266,1.56-1.3.764-.024,1.531-.03,2.294,0a2.108,2.108,0,0,1,2.285,2.325c.006.147,0,.294,0,.441q0,7.721,0,15.443c0,2.128-.667,2.793-2.8,2.794q-7.721,0-15.443,0c-2.084,0-2.769-.674-2.771-2.73q-.006-7.766,0-15.531c0-2.069.681-2.746,2.752-2.749q3.53-.007,7.06,0a4.449,4.449,0,0,1,1.05.091,1.159,1.159,0,0,1,.923,1.234,1.135,1.135,0,0,1-.929,1.225,7.664,7.664,0,0,1-1.491.094C-949.346,1191.089-951.543,1191.083-953.816,1191.083Z" transform="translate(-161.794 -161.74)" fill="#13102c"/>
    <path id="Path_20203" data-name="Path 20203" d="M-732.794,1028.681c0,1.382.011,2.765,0,4.147a2.127,2.127,0,0,1-2.4,2.382q-4.235.018-8.47,0a2.1,2.1,0,0,1-2.358-2.337q-.026-4.279,0-8.558a2.1,2.1,0,0,1,2.359-2.337q4.235-.023,8.47,0a2.127,2.127,0,0,1,2.4,2.382C-732.783,1025.8-732.794,1027.24-732.794,1028.681Zm-10.532-4.02v7.836h7.839v-7.836Z" transform="translate(-335.105 -24.675)" fill="#13102c"/>
    <path id="Path_20204" data-name="Path 20204" d="M-1116.442,1412.213c-1.412,0-2.823.013-4.235,0a2.106,2.106,0,0,1-2.353-2.344q-.025-4.279,0-8.559a2.1,2.1,0,0,1,2.364-2.331q4.235-.022,8.47,0a2.123,2.123,0,0,1,2.4,2.388q.02,4.235,0,8.47a2.125,2.125,0,0,1-2.409,2.377C-1113.619,1412.223-1115.031,1412.213-1116.442,1412.213Zm3.961-10.531h-7.836v7.835h7.836Z" transform="translate(-24.668 -335.113)" fill="#13102c"/>
  </g>
</svg>
