<svg xmlns="http://www.w3.org/2000/svg" width="99.397" height="99.409" viewBox="0 0 99.397 99.409">
  <g id="Group_79677" data-name="Group 79677" transform="translate(-1180.5 -410.996)">
    <path id="Path_20157" data-name="Path 20157" d="M1242.63,510.406h-3.106a3.67,3.67,0,0,0-.533-.179,11.72,11.72,0,0,1-8.163-5.493c-.178-.28-.348-.564-.559-.906-.226.351-.4.619-.572.887a12.167,12.167,0,0,1-7.054,5.242c-.581.167-1.171.3-1.757.448h-3.106a1.387,1.387,0,0,0-.337-.161,11.7,11.7,0,0,1-9.2-7.193c-.063-.142-.148-.274-.219-.4-11.29,3.984-21.984-5.015-18.431-16.968-7.784-1.581-11.02-13.146-4.208-18.928a12.863,12.863,0,0,1-4.25-6.348c-.261-.857-.426-1.743-.635-2.615v-3.107a6.591,6.591,0,0,0,.178-.644,12.624,12.624,0,0,1,7.551-9.778c.4-.187.809-.357,1.224-.54a14.65,14.65,0,0,1,.917-11.811c2.133-3.87,5.612-5.648,9.841-6.068a1.746,1.746,0,0,0,.084-.265c.691-6.957,5.719-10.606,12.468-9.012.612.145.85-.079,1.157-.525a10.828,10.828,0,0,1,8.355-5,9.234,9.234,0,0,1,8,3.346c2.225-2.079,2.926-2.55,4.457-3a10.656,10.656,0,0,1,11.667,4.548,1.152,1.152,0,0,0,1.483.567c5.38-1.3,10.051,1.223,11.7,6.3a30.077,30.077,0,0,1,.66,3.059c4.256.417,7.705,2.247,9.825,6.118a14.684,14.684,0,0,1,.885,11.767c4.839,1.843,7.93,5.171,8.742,10.291a13.4,13.4,0,0,1-4.67,12.771c6.79,5.914,3.534,17.267-4.275,18.877,1.313,5.419.809,10.494-3.572,14.425-4.334,3.888-9.454,4.185-14.817,2.5a11.841,11.841,0,0,1-7.885,7.3C1243.867,510.09,1243.246,510.24,1242.63,510.406Zm-13.8-20.565v-.813q0-34.84,0-69.681a4.8,4.8,0,0,0-3.079-4.64c-3.637-1.635-7.53.179-9.478,3.448a1.894,1.894,0,0,0-.184.644,7.633,7.633,0,0,0,.265,4.012,1.528,1.528,0,0,1-.881,2.079,1.548,1.548,0,0,1-2.034-1.116,9.964,9.964,0,0,1-.509-2.061c-.267-2.192-.244-2.2-2.474-2.427a5.992,5.992,0,0,0-1.16-.019c-3.65.34-6.026,3.279-5.871,7.243.078,1.995-.221,2.31-2.184,2.391-3.973.163-7.086,1.729-8.654,5.575a11.566,11.566,0,0,0,.132,8.977c.762,1.886.494,2.473-1.447,3.025-5.51,1.566-8.47,6.136-7.433,11.767.632,3.429,2.317,6.229,5.934,7.2a23.72,23.72,0,0,0,4.691.492c1.094.065,1.784.532,1.837,1.439a1.523,1.523,0,0,1-1.721,1.653c-1.765-.074-3.522-.322-5.286-.449a2.16,2.16,0,0,0-1.247.223,7.348,7.348,0,0,0-2.92,8.448c.766,2.681,2.249,4.708,5.189,5.294a1.26,1.26,0,0,0,1.479-.564,12.018,12.018,0,0,1,4.1-3.635c1.084-.6,1.961-.476,2.463.354s.184,1.667-.871,2.319a10.344,10.344,0,0,0-5.275,7.784,9.93,9.93,0,0,0,6.194,10.912,12.33,12.33,0,0,0,9.442-.407c1.694-.709,2.361-.411,2.856,1.324a9.039,9.039,0,0,0,2.815,4.548c5.065,4.313,12.735,1.852,14.761-4.733,1.38-4.486-.064-8.182-4.022-10.008a10.157,10.157,0,0,0-9.594.365c-1.05.577-1.891.435-2.371-.369-.492-.824-.177-1.719.87-2.321a13.289,13.289,0,0,1,15.669,1.731Zm3.144,2.733c0,1.935-.1,3.781.023,5.612a9.652,9.652,0,0,0,3.2,6.95,8.968,8.968,0,0,0,14.575-4.662c.4-1.509,1.136-1.772,2.6-1.282a23.918,23.918,0,0,0,4.665,1.2,9.939,9.939,0,0,0,10.807-6.952,13.407,13.407,0,0,0-.559-8.278c-.63-1.784-.038-2.606,1.826-2.554a5.39,5.39,0,0,0,3.824-1.388c3.352-2.938,4.279-9.866-1.279-12.861-.669-.36-1.213-.791-1.192-1.61s.576-1.227,1.246-1.581c6.319-3.343,6.9-12.989.974-17.016a18.493,18.493,0,0,0-4.042-1.8c-1.234-.455-1.651-1.15-1.177-2.367.165-.421.36-.831.508-1.258,1.954-5.629-.181-13.193-8.119-13.793-2.807-.212-2.8-.279-2.851-3.1a6.329,6.329,0,0,0-6.071-6.546,11.622,11.622,0,0,0-3.59.649c-1.576.471-2.05.343-2.8-1.1a8.45,8.45,0,0,0-5.048-4.409c-3.515-1.117-7.08.624-7.434,3.906a80.442,80.442,0,0,0-.062,8.507c1.786,0,3.528-.03,5.267.013A1.588,1.588,0,0,0,1239,425.9a4.868,4.868,0,0,1,5.453-2.4,4.972,4.972,0,0,1,3.824,4.375,4.906,4.906,0,0,1-3.074,5.1c-2.063.832-4.646.367-5.714-1.517-.877-1.546-1.958-1.641-3.383-1.56-1.129.064-2.264.008-3.4.018a6.09,6.09,0,0,0-.72.089v15.185h.994c2.524,0,5.054-.111,7.569.033,2.235.128,4.005-1,5.936-1.664-.471-4.678,1.488-8,5.27-9.054a7.494,7.494,0,0,1,6.525,13.246c-3.244,2.363-6.973,1.876-10.423-1.391-1,.391-2.044.734-3.031,1.2a8.518,8.518,0,0,1-3.945.751c-2.62-.057-5.241-.017-7.862-.017h-1.033v9.095H1254.6c2.054-4.595,5.056-6.534,8.888-5.756a7.5,7.5,0,0,1,.414,14.646c-4.017.99-6.882-.754-9.322-5.656h-22.562v9.377c2.02,0,3.964.091,5.9-.02a17.093,17.093,0,0,1,9.383,1.721c.444.24.722.141,1.067-.237a7.264,7.264,0,0,1,5.044-2.386,7.506,7.506,0,0,1,1.675,14.9,7.42,7.42,0,0,1-8.579-6.025,19.809,19.809,0,0,1-.026-3.223c-2.089-.808-4.064-1.846-6.465-1.66-2.348.182-4.721.038-7.083.041-.311,0-.622.029-.918.044V489.41h7.616c1.465-2.772,3.474-3.853,6.027-3.262a4.994,4.994,0,0,1,.073,9.674q-3.778.977-6.111-3.249Zm30.163-37.923a4.382,4.382,0,1,0,4.333,4.408A4.392,4.392,0,0,0,1262.132,454.65Zm-8.283-17.306a4.353,4.353,0,0,0-4.406,4.346,4.4,4.4,0,1,0,8.8,0A4.325,4.325,0,0,0,1253.849,437.344Zm-.009,43.614a4.387,4.387,0,1,0-.03-8.774,4.387,4.387,0,0,0,.03,8.774Zm-9.419,8.145a1.9,1.9,0,0,0,.045,3.791,1.9,1.9,0,0,0-.045-3.791Zm-1.059-62.605a1.868,1.868,0,1,0-.114,3.733,1.868,1.868,0,1,0,.114-3.733Z" transform="translate(0 0)" fill="#13102c"/>
    <path id="Path_20158" data-name="Path 20158" d="M1253.055,551.236a10.521,10.521,0,0,0-6.422-7.747c-.207-.089-.429-.145-.637-.232a1.6,1.6,0,0,1-1.039-2.095,1.565,1.565,0,0,1,2.11-.8,13.493,13.493,0,0,1,8.681,8.876c.062.184.115.37.166.557s.091.368.1.424a39.6,39.6,0,0,1,4.573.464,12.043,12.043,0,0,1,9.306,11.268c.043,1.4-.809,2.24-1.98,1.912-.9-.252-1.093-.954-1.149-1.8a8.848,8.848,0,0,0-6.875-8.358,8.747,8.747,0,0,0-9.125,3.09c-.169.2-.308.417-.474.614a1.576,1.576,0,0,1-2.227.364,1.54,1.54,0,0,1-.276-2.164,11.972,11.972,0,0,1,4.458-3.943C1252.5,551.529,1252.752,551.4,1253.055,551.236Z" transform="translate(-47.686 -95.78)" fill="#13102c"/>
    <path id="Path_20159" data-name="Path 20159" d="M1287.644,642.534a7.985,7.985,0,0,1-7.637-5.639,7.883,7.883,0,0,1,3.179-8.837c1.024-.672,1.936-.613,2.483.161.557.789.305,1.654-.69,2.368a4.772,4.772,0,0,0-1.568,6.393,4.863,4.863,0,0,0,6.394,1.913c.32-.141.751-.394.988-.286a3.091,3.091,0,0,1,1.427,1.072,1.214,1.214,0,0,1-.623,1.721c-1.257.534-2.578.921-3.871,1.369Z" transform="translate(-73.499 -160.525)" fill="#13102c"/>
    <path id="Path_20160" data-name="Path 20160" d="M1294.153,481.15c0,1.418-1.052,2.249-2.013,1.824-2.913-1.289-5.2-.353-7.368,1.7-1.874,1.776-4.085,2.838-6.792,2.183a6.615,6.615,0,0,1-3.643-2.417,1.549,1.549,0,1,1,2.311-2.055c.228.228.434.481.678.691a3,3,0,0,0,3.671.469,13.975,13.975,0,0,0,2.385-1.795,8.691,8.691,0,0,1,9.6-1.71A4.735,4.735,0,0,1,1294.153,481.15Z" transform="translate(-69.21 -50.589)" fill="#13102c"/>
    <path id="Path_20161" data-name="Path 20161" d="M1326.552,520.949a6.517,6.517,0,0,1-6.093,6.481,1.654,1.654,0,0,1-1.946-1.442c-.069-.9.531-1.506,1.633-1.644a3.406,3.406,0,0,0,3.286-3.412,3.354,3.354,0,0,0-3.318-3.354,1.563,1.563,0,1,1,.166-3.111A6.48,6.48,0,0,1,1326.552,520.949Z" transform="translate(-102.281 -76.685)" fill="#13102c"/>
    <path id="Path_20162" data-name="Path 20162" d="M1492.62,592.076a1.539,1.539,0,0,1-1.568,1.511,1.52,1.52,0,0,1-1.529-1.543,1.554,1.554,0,0,1,1.562-1.528A1.575,1.575,0,0,1,1492.62,592.076Z" transform="translate(-229.024 -133.046)" fill="#13102c"/>
    <path id="Path_20163" data-name="Path 20163" d="M1459.429,523.642a1.61,1.61,0,0,1,1.593,1.518,1.565,1.565,0,0,1-1.528,1.565,1.5,1.5,0,0,1-1.562-1.5A1.527,1.527,0,0,1,1459.429,523.642Z" transform="translate(-205.611 -83.485)" fill="#13102c"/>
    <path id="Path_20164" data-name="Path 20164" d="M1459.471,658.457a1.548,1.548,0,0,1,1.554,1.533,1.628,1.628,0,0,1-1.568,1.55,1.544,1.544,0,0,1-1.523-1.562A1.486,1.486,0,0,1,1459.471,658.457Z" transform="translate(-205.613 -183.399)" fill="#13102c"/>
  </g>
</svg>
