<svg xmlns="http://www.w3.org/2000/svg" xmlns:xlink="http://www.w3.org/1999/xlink" width="196.691" height="64.785" viewBox="0 0 196.691 64.785">
  <defs>
    <clipPath id="clip-path">
      <path id="SVGID" d="M215.453,239.137h3.268l.17-.055v-1.049Zm-2.778-.865v.857l6.216-2v-.859Zm0-1.4.751.256,1.3-.42-2.055-.7Zm4.733-1.023h0Zm-4.733-.748,3.429,1.168,1.3-.419-4.733-1.611Zm0-1.769,6.1,2.076.118-.038v-.794l-6.216-2.164Zm0-1.769,6.216,2.115v-.863l-6.216-2.115Zm-8.356-1.583h1.37l-1.37-.477Zm8.356-.184,6.216,2.114v-.864l-6.216-2.115Zm-8.356-1.076,3.7,1.26h2.534l-6.237-2.122Zm8.356-.7,6.216,2.115v-.863l-6.216-2.115Zm-8.356-1.07,6.237,2.121v-.865l-6.237-2.123Zm8.356-.7,6.216,2.114v-.863l-6.216-2.114Zm4.352-.29h0l1.295.44.568-.183v-.856Zm-2.662-.9h0Zm-10.046.119,6.237,2.122v-.862l-6.237-2.122Zm10.047-.119,1.3.446,3.226-1.038v-.861Zm-5.318-1.8,1.3.435.207-.066v-.854Zm-4.729.156,6.237,2.121v-.862l-6.237-2.121Zm2.072-1.064h0Zm6.285,1.494v.644l.331.114,5.885-1.892v-.864Zm-6.283-1.495,1.294.439,2.87-.923v-.855Zm6.283-.259v.855l6.216-2v-.858Zm-8.356-1.5.773-.252-.773-.263Zm2.706-1.105h0Zm-2.706,1.766v.389l.714.245,5.523-1.777v-.862Zm0-1.828,1.4.48,1.3-.419-2.706-.924Zm8.356.9v.856l6.216-2v-.856Zm-.3-2.562h0Zm2.674-.865h0Zm-10.727.755,4.071,1.388,1.31-.424-5.381-1.828Zm8.356.911v.861l6.216-2v-.859Zm5.043-2.52h0Zm-13.4-.159,6.75,2.3,1.3-.419-8.053-2.745Zm0-1.768,9.424,3.2,1.3-.419-10.727-3.648Zm0-1.772,12.1,4.119,1.3-.42-13.4-4.56Zm8.356-.7,6.216,2.112v-.858l-6.216-2.116Zm-8.356-1.072,14.572,4.953v-.862l-7.633-2.594h-.7v-.239l-6.237-2.12Zm8.356-.694L218.891,212v-.867l-6.216-2.113Zm-8.356-1.075,6.237,2.12v-.863l-6.237-2.123Zm8.356-.7,6.216,2.116v-.867l-6.216-2.114Zm-8.356-1.067,6.237,2.121V208.3l-6.237-2.121Zm12.874-.932h0Zm0,0,1.294.439.4-.129v-.856Zm-4.518.23,6.216,2.115V207.6l-6.216-2.115Zm1.86-1.138h0Zm-10.217.061,6.237,2.124v-.864l-6.237-2.122Zm10.219-.062,1.3.446,3.055-.983v-.861Zm-5.319-1.8,1.295.439.042-.013v-.856Zm-4.9.1,6.237,2.123v-.862l-6.237-2.123Zm8.356.544v.533l.5.171,5.719-1.84v-.863Zm-7.663-2.813-.693.223v.278l.874.3,2.48-.8Zm5.479,0-3.935,1.266,1.3.435,2.7-.868v-.833Zm2.184,1.057v.857l6.216-2v-.859Zm0-1.76v.854l6.216-2v-.855Zm0-1.761v.856l6.216-2v-.856Zm0-1.626,1.1.374,1.3-.419h0l-2.4-.819Zm0-1.769,3.764,1.282,1.315-.417-5.079-1.73Zm0-1.776,6.216,2.114v-.857l-6.216-2.117Zm.721-1.522,5.494,1.868v-.864l-2.955-1Zm4.871,0,.623.212v-.212Z" transform="translate(-204.319 -192.078)" fill="#3fa5a2"/>
    </clipPath>
    <clipPath id="clip-path-2">
      <path id="SVGID-2" data-name="SVGID" d="M370.092,171.589H372.5l0-.779Zm-5.183-.073v.073h2.444l5.165-1.676,0-.865Zm0-1.78v.862l7.619-2.454.01-.858Zm0-1.755v.855l7.635-2.455.009-.858Zm0-1.763v.859l6.15-1.976v-.862Zm0-1.76v.859l6.15-1.974v-.863Zm0-1.758v.858l6.15-1.979v-.856Zm0-1.759v.858l6.15-1.978v-.856Zm0-1.763v.86l6.15-1.977V157.2Zm0-1.188.441.15,1.3-.419-1.745-.594Zm4.412-1.13h0Zm-4.412-.639,3.109,1.058,1.3-.419-4.412-1.5Zm0-1.771,5.788,1.97.363-.117v-.624l-6.15-2.093Zm3.99-2.182h0Zm-3.99.411,6.15,2.091v-.862l-6.15-2.092Zm3.991-.411,1.3.446.86-.278v-.86Zm-2.658-.908h0Zm0,0,1.3.446,3.519-1.131v-.864Zm-1.333-1.324v.856l6.15-1.976v-.861Zm0-1.762v.856l6.15-1.977V146.3Zm0-1.758v.86l6.15-1.98v-.856Zm0-1.763v.863l6.15-1.977v-.864Zm0-1.756v.859l6.15-1.976v-.862Zm0-1.759v.856l6.15-1.978v-.856Zm0-1.761v.858l6.15-1.979V137.5Zm0-1.4.758.258,1.3-.415-2.056-.7Zm0-1.763,3.43,1.167,1.3-.426-4.73-1.608Zm0-1.771,6.1,2.077.052-.017v-.836l-6.15-2.092Zm0-1.77,6.15,2.093V134l-6.15-2.094Zm4.155-.354,1.306.442.689-.222v-.859Zm-2.658-.908h0Zm0,0,1.3.446,3.353-1.078v-.863Zm-1.5-1.273V131l.14.048,6.01-1.928v-.861Zm0-1.76v.856l6.15-1.977V126.5Zm0-1.761v.86l6.15-1.98v-.857Zm0-1.763v.864l6.15-1.978v-.863Zm0-1.756v.86l6.15-1.977v-.863Zm0-1.758v.855l6.15-1.977v-.856Zm0-1.759v.856l6.15-1.977V117.7Zm0-1.424.782.267,1.315-.418-2.1-.713Zm0-1.775,3.467,1.178,1.3-.419h0l-4.771-1.622Zm0-1.763,6.14,2.087.01,0v-.849l-6.15-2.093Zm0-1.773,6.15,2.093v-.861l-6.15-2.092Zm4.322-.3h0l1.3.446.529-.171v-.861Zm-2.653-.9,1.294.44,3.187-1.025v-.856Zm-1.669-1.224v.653l.307.1,5.844-1.875v-.86Zm0-3.721h0v1.06l3.294-1.06Zm6.106,0-6.106,1.96v.863l6.15-1.978V106.8Z" transform="translate(-364.909 -106.804)" fill="#3fa5a2"/>
    </clipPath>
  </defs>
  <g id="Logo" transform="translate(-60.733 -18)">
    <g id="Group_79395" data-name="Group 79395" transform="translate(-1253.319 819.196)">
      <path id="Path_19483" data-name="Path 19483" d="M524.044,332.114v8.175h10.191v-8.175h4.314V352.58h-4.314v-9.11H524.044v9.11H519.73V332.114Z" transform="translate(827.373 -1109.891)" fill="#1a1718"/>
      <path id="Path_19484" data-name="Path 19484" d="M744.226,391.092a27.086,27.086,0,0,0,.233,3.724h-3.951a6.189,6.189,0,0,1-.253-1.656c-.612.908-1.842,2.011-4.964,2.011-4.091,0-5.824-2.385-5.824-4.729,0-3.442,3.083-5.025,8.118-5.025h2.6v-1.053c0-1.168-.452-2.425-2.984-2.425-2.286,0-2.739.925-2.988,2.056h-3.948c.246-2.5,1.983-4.765,7.085-4.744,4.444.021,6.875,1.586,6.875,5.153Zm-4.031-3.366h-2.21c-3.039,0-4.354.8-4.354,2.49,0,1.263.914,2.266,2.752,2.266,3.38,0,3.812-2.065,3.812-4.327Z" transform="translate(639.437 -1152.127)" fill="#1a1718"/>
      <path id="Path_19485" data-name="Path 19485" d="M914.591,393.454c0,1.471.01,3.219.033,4.424H910.58c-.067-.406-.1-1.258-.123-1.931-.955,1.58-2.511,2.286-4.865,2.286-3.281,0-5.687-1.679-5.687-5.626v-9.94h4.124v9.191c0,1.787.625,3.328,2.938,3.328,2.489,0,3.489-1.2,3.489-4.478v-8.041h4.134Z" transform="translate(486.715 -1155.189)" fill="#1a1718"/>
      <path id="Path_19486" data-name="Path 19486" d="M1064.056,346.09h2.743v-4.243h4.134v4.243h3.491v2.822h-3.491v7.978c0,1.263.4,1.816,1.856,1.816a8.237,8.237,0,0,0,1.216-.074v2.588a10.97,10.97,0,0,1-2.971.287c-3.108,0-4.235-1.466-4.235-4.082v-8.514h-2.743Z" transform="translate(339.626 -1118.612)" fill="#1a1718"/>
      <path id="Path_19487" data-name="Path 19487" d="M1178.315,387.969c.01,2.3,1.309,4.276,3.849,4.276,2.217,0,2.885-.884,3.367-1.869h4.144c-.628,1.891-2.484,4.795-7.624,4.795-5.545,0-7.9-3.793-7.9-7.759,0-4.688,2.688-8.162,8.079-8.162,5.751,0,7.683,3.832,7.683,7.443a9.131,9.131,0,0,1-.056,1.275Zm7.442-2.339c-.033-2.017-1.036-3.682-3.549-3.682s-3.566,1.55-3.792,3.682Z" transform="translate(240.977 -1152.127)" fill="#1a1718"/>
      <path id="Path_19488" data-name="Path 19488" d="M1357.706,332.114h4.314V349.4h11.642l-.519,3.181h-15.436Z" transform="translate(76.499 -1109.891)" fill="#1a1718"/>
      <path id="Path_19489" data-name="Path 19489" d="M1532.116,387.181c0,4.528-3,7.99-8.355,7.99-5.166,0-8.216-3.368-8.216-7.919,0-4.626,3.094-8,8.429-8,4.936,0,8.142,3.161,8.142,7.931m-12.36.03c0,3.065,1.569,5.035,4.115,5.035,2.589,0,4.035-1.928,4.035-5.014,0-3.264-1.459-5.055-4.1-5.055-2.532,0-4.048,1.732-4.048,5.035" transform="translate(-64.934 -1152.127)" fill="#1a1718"/>
      <path id="Path_19490" data-name="Path 19490" d="M1710.1,393.126c0,4.88-2.1,7.864-8.279,7.864-5.885,0-7.238-2.928-7.451-4.762h4.214c.389,1.254,1.468,2.023,3.42,2.023,3.344,0,4.052-1.843,4.052-5v-.9c-.9,1.446-2.364,2.316-4.994,2.316-4.4,0-7.071-3.205-7.071-7.419,0-4.826,3.216-8,7.443-8,3.042,0,4.319,1.275,4.622,2.085.033-.505.136-1.458.17-1.73h3.918c-.023,1.2-.043,2.912-.043,4.374Zm-11.852-6.036c0,2.816,1.605,4.573,3.935,4.573,3.131,0,4-1.9,4-4.726,0-2.848-.678-4.7-3.9-4.7-2.426,0-4.035,1.726-4.035,4.851" transform="translate(-224.829 -1152.128)" fill="#1a1718"/>
      <path id="Path_19491" data-name="Path 19491" d="M1879.112,320.782h4.134v3.6h-4.134Zm0,6.432h4.134v15.211h-4.134Z" transform="translate(-390.711 -1099.737)" fill="#1a1718"/>
      <path id="Path_19492" data-name="Path 19492" d="M1961.408,389.99c-.635,2.562-2.634,5.182-7.477,5.182-5.113,0-7.91-3.188-7.91-7.86a7.71,7.71,0,0,1,8.133-8.061c5.482,0,7.118,3.493,7.254,5.295h-4.051a2.975,2.975,0,0,0-3.284-2.369c-2.453,0-3.842,1.9-3.842,5.014,0,3.314,1.419,5.076,3.792,5.076a3.242,3.242,0,0,0,3.31-2.277Z" transform="translate(-450.665 -1152.128)" fill="#1a1718"/>
      <g id="Group_79414" data-name="Group 79414" transform="translate(-1162.948 -98.196)">
        <g id="Group_79418" data-name="Group 79418" transform="translate(2477 -703)">
          <g id="Group_79415" data-name="Group 79415" transform="translate(0 8.864)">
            <g id="Group_79414-2" data-name="Group 79414" clip-path="url(#clip-path)">
              <rect id="Rectangle_1614" data-name="Rectangle 1614" width="31.033" height="49.102" transform="translate(-16.25 6.513) rotate(-21.84)" fill="#3fa5a2"/>
            </g>
          </g>
          <g id="Group_79417" data-name="Group 79417" transform="translate(16.692 0)">
            <g id="Group_79416" data-name="Group 79416" clip-path="url(#clip-path-2)">
              <rect id="Rectangle_1615" data-name="Rectangle 1615" width="31.707" height="62.825" transform="translate(-22.786 9.369) rotate(-22.352)" fill="#3fa5a2"/>
            </g>
          </g>
        </g>
      </g>
    </g>
  </g>
</svg>
