<svg xmlns="http://www.w3.org/2000/svg" xmlns:xlink="http://www.w3.org/1999/xlink" width="339.443" height="111.957" viewBox="0 0 339.443 111.957">
  <defs>
    <clipPath id="clip-path">
      <path id="SVGID" d="M223.561,273.4h5.647l.294-.094v-1.814Zm-4.8-1.495v1.48l10.741-3.452V268.45Zm0-2.416,1.3.442,2.254-.725L218.76,268Zm8.179-1.767h0Zm-8.179-1.293,5.926,2.018,2.253-.725-8.179-2.784Zm0-3.057,10.538,3.588.2-.066v-1.372l-10.741-3.74Zm0-3.057,10.741,3.655V262.48l-10.741-3.654Zm-14.441-2.736h2.368l-2.368-.824Zm14.441-.318,10.741,3.654v-1.492l-10.741-3.656ZM204.319,255.4l6.4,2.177H215.1l-10.778-3.666Zm14.441-1.2,10.741,3.655v-1.491l-10.741-3.655Zm-14.441-1.849,10.778,3.665v-1.495l-10.778-3.668Zm14.441-1.208L229.5,254.8v-1.491l-10.741-3.653Zm7.521-.5h0l2.238.76.982-.316v-1.479Zm-4.6-1.562h0Zm-17.361.205,10.778,3.667v-1.49L204.319,247.8Zm17.362-.205,2.245.771,5.576-1.795v-1.489Zm-9.19-3.118,2.249.752.357-.114v-1.476Zm-8.172.27L215.1,249.9v-1.489l-10.778-3.666Zm3.58-1.839h0Zm10.861,2.582v1.112l.572.2,10.169-3.269v-1.493ZM207.9,244.392l2.236.759,4.959-1.595v-1.478Zm10.857-.447v1.477l10.741-3.45v-1.483Zm-14.441-2.589,1.335-.435-1.335-.454Zm4.676-1.91h0Zm-4.676,3.052v.673l1.233.423,9.545-3.07v-1.489Zm0-3.159,2.423.83,2.253-.724-4.676-1.6ZM218.76,240.9v1.479l10.741-3.453v-1.479Zm-.524-4.427h0Zm4.622-1.494h0Zm-18.538,1.3,7.035,2.4,2.264-.733-9.3-3.159Zm14.441,1.573v1.488L229.5,235.89v-1.484Zm8.715-4.355h0Zm-23.156-.275,11.664,3.971,2.253-.725-13.917-4.744Zm0-3.055L220.6,235.7l2.253-.725-18.538-6.3Zm0-3.062,20.9,7.118,2.253-.726-23.156-7.881Zm14.441-1.2,10.741,3.65v-1.482L218.76,224.42Zm-14.441-1.852,25.182,8.56v-1.49l-13.191-4.483H215.1v-.412l-10.778-3.664Zm14.441-1.2,10.741,3.653v-1.5L218.76,221.36ZM204.319,221l10.778,3.663v-1.49L204.319,219.5Zm14.441-1.209,10.741,3.658v-1.5L218.76,218.3Zm-14.441-1.844,10.778,3.665v-1.5l-10.778-3.665Zm22.247-1.611h0Zm0,0,2.237.759.7-.223v-1.479Zm-7.808.4L229.5,220.39V218.9l-10.741-3.656Zm3.215-1.966h0Zm-17.656.105,10.778,3.671v-1.493l-10.778-3.667Zm17.659-.106,2.244.77,5.279-1.7V212.35Zm-9.191-3.118,2.238.759.072-.023v-1.479Zm-8.468.17,10.778,3.668V214l-10.778-3.668Zm14.441.941v.921l.859.3L229.5,210.8v-1.492ZM205.517,207.9l-1.2.385v.481l1.511.512,4.286-1.378Zm9.469,0-6.8,2.188,2.25.752,4.663-1.5V207.9Zm3.774,1.827v1.481l10.741-3.451v-1.485Zm0-3.041v1.475l10.741-3.453v-1.477Zm0-3.042v1.479L229.5,201.67v-1.479Zm0-2.81,1.895.646,2.255-.725h0l-4.148-1.415Zm0-3.057,6.505,2.215,2.272-.721-8.778-2.99Zm0-3.068,10.741,3.654v-1.481l-10.741-3.658Zm1.247-2.63,9.495,3.229v-1.493l-5.106-1.736Zm8.418,0,1.076.366v-.366Z" transform="translate(-204.319 -192.078)" fill="#11b4b4"/>
    </clipPath>
    <clipPath id="clip-path-2">
      <path id="SVGID-2" data-name="SVGID" d="M373.866,218.76h4.167l.007-1.347Zm-8.957-.126v.126h4.223l8.926-2.9.008-1.5Zm0-3.076v1.49l13.167-4.241.017-1.483Zm0-3.033V214l13.195-4.242.015-1.483Zm0-3.046v1.485l10.629-3.415v-1.49Zm0-3.041v1.485l10.629-3.412v-1.491Zm0-3.039v1.483l10.629-3.419v-1.48Zm0-3.039v1.484l10.629-3.418v-1.48Zm0-3.046V198.8l10.629-3.417v-1.49Zm0-2.053.762.259,2.254-.725-3.016-1.026Zm7.624-1.952h0v0Zm-7.624-1.1,5.373,1.828,2.251-.724-7.624-2.595Zm0-3.061,10,3.4.627-.2v-1.078l-10.629-3.617Zm6.9-3.77h0Zm-6.9.71,10.629,3.614v-1.49L364.909,184.6Zm6.9-.71,2.245.77,1.487-.48v-1.487Zm-4.594-1.57h0Zm0,0,2.244.771,6.081-1.954V181.13Zm-2.3-2.288V183l10.629-3.414V178.1Zm0-3.044v1.479l10.629-3.417v-1.48Zm0-3.039v1.486l10.629-3.421v-1.48Zm0-3.047v1.492l10.629-3.417V168.97Zm0-3.035v1.485l10.629-3.415v-1.49Zm0-3.04v1.479l10.629-3.418v-1.48Zm0-3.042v1.483l10.629-3.419v-1.48Zm0-2.423,1.31.445,2.243-.717-3.553-1.209Zm0-3.047,5.928,2.016,2.246-.735-8.174-2.779Zm0-3.06,10.539,3.589.089-.029v-1.444l-10.629-3.616Zm0-3.06,10.629,3.617v-1.489l-10.629-3.618Zm7.181-.611,2.257.763,1.191-.384v-1.484ZM367.5,149.5h0Zm0,0,2.244.77,5.795-1.863v-1.491Zm-2.59-2.2v1.318l.243.083,10.386-3.333v-1.488Zm0-3.041v1.479l10.629-3.416v-1.479Zm0-3.042V142.7l10.629-3.421V137.8Zm0-3.046v1.492l10.629-3.418v-1.492Zm0-3.035v1.487l10.629-3.416v-1.491Zm0-3.039v1.477l10.629-3.416v-1.479Zm0-3.039v1.479l10.629-3.417v-1.479Zm0-2.461,1.351.461,2.273-.722-3.624-1.232Zm0-3.067,5.992,2.036,2.254-.725h0l-8.245-2.8Zm0-3.047,10.611,3.607.018-.005v-1.467L364.909,119Zm0-3.064,10.629,3.617v-1.489l-10.629-3.615Zm7.468-.511h0l2.245.771.915-.3v-1.489Zm-4.584-1.558,2.237.76,5.508-1.771V112.86Zm-2.884-2.114v1.128l.53.178,10.1-3.241v-1.487Zm0-6.431h0v1.831L370.6,106.8Zm10.551,0-10.551,3.388v1.491l10.629-3.417V106.8Z" transform="translate(-364.909 -106.804)" fill="#11b4b4"/>
    </clipPath>
  </defs>
  <g id="Logo" transform="translate(-1314.319 801.196)">
    <g id="Group_79400" data-name="Group 79400" transform="translate(1314.319 -801.196)">
      <g id="Group_79395" data-name="Group 79395" transform="translate(0 15.317)" clip-path="url(#clip-path)">
        <rect id="Rectangle_1612" data-name="Rectangle 1612" width="53.628" height="84.855" transform="translate(-28.082 11.255) rotate(-21.84)" fill="#11b4b4"/>
      </g>
      <g id="Group_79397" data-name="Group 79397" transform="translate(28.846 0)" clip-path="url(#clip-path-2)">
        <rect id="Rectangle_1613" data-name="Rectangle 1613" width="54.793" height="108.568" transform="translate(-39.377 16.191) rotate(-22.352)" fill="#11b4b4"/>
      </g>
    </g>
    <path id="Path_19483" data-name="Path 19483" d="M527.185,332.115v14.127H544.8V332.115h7.455v35.366H544.8V351.738H527.185v15.742H519.73V332.115Z" transform="translate(851.244 -1092.839)" fill="#1a1718"/>
    <path id="Path_19484" data-name="Path 19484" d="M754.972,399.714a46.826,46.826,0,0,0,.4,6.435h-6.828a10.7,10.7,0,0,1-.437-2.862c-1.058,1.569-3.183,3.476-8.579,3.476-7.07,0-10.064-4.122-10.064-8.173,0-5.948,5.328-8.684,14.029-8.684h4.493v-1.82c0-2.019-.781-4.191-5.157-4.191-3.951,0-4.733,1.6-5.163,3.552h-6.822c.426-4.318,3.427-8.235,12.244-8.2,7.68.036,11.882,2.741,11.882,8.9Zm-6.966-5.816h-3.819c-5.251,0-7.524,1.376-7.524,4.3,0,2.182,1.579,3.915,4.756,3.915,5.841,0,6.588-3.568,6.588-7.477Z" transform="translate(679.182 -1131.508)" fill="#1a1718"/>
    <path id="Path_19485" data-name="Path 19485" d="M925.284,401.307c0,2.542.017,5.563.058,7.645h-6.989c-.115-.7-.172-2.173-.213-3.338-1.65,2.73-4.339,3.951-8.406,3.951-5.669,0-9.828-2.9-9.828-9.722V382.667h7.127V398.55c0,3.088,1.08,5.751,5.078,5.751,4.3,0,6.03-2.075,6.03-7.738v-13.9h7.144Z" transform="translate(539.358 -1134.311)" fill="#1a1718"/>
    <path id="Path_19486" data-name="Path 19486" d="M1064.056,349.179h4.741v-7.332h7.144v7.332h6.033v4.877h-6.033v13.788c0,2.182.69,3.138,3.207,3.138a14.23,14.23,0,0,0,2.1-.128v4.473a18.955,18.955,0,0,1-5.135.5c-5.37,0-7.318-2.533-7.318-7.054V354.056h-4.741Z" transform="translate(404.693 -1100.823)" fill="#1a1718"/>
    <path id="Path_19487" data-name="Path 19487" d="M1181.349,394.317c.017,3.98,2.262,7.39,6.651,7.39,3.831,0,4.985-1.527,5.818-3.229h7.161c-1.086,3.268-4.293,8.286-13.175,8.286-9.582,0-13.657-6.555-13.657-13.408,0-8.1,4.645-14.1,13.962-14.1,9.938,0,13.278,6.622,13.278,12.863a15.787,15.787,0,0,1-.1,2.2Zm12.86-4.043c-.057-3.485-1.791-6.363-6.134-6.363s-6.163,2.678-6.554,6.363Z" transform="translate(314.376 -1131.508)" fill="#1a1718"/>
    <path id="Path_19488" data-name="Path 19488" d="M1357.706,332.115h7.454v29.87h20.119l-.9,5.5h-26.676Z" transform="translate(163.79 -1092.839)" fill="#1a1718"/>
    <path id="Path_19489" data-name="Path 19489" d="M1544.182,392.956c0,7.825-5.191,13.808-14.439,13.808-8.927,0-14.2-5.82-14.2-13.685,0-7.994,5.346-13.828,14.566-13.828,8.53,0,14.071,5.462,14.071,13.706m-21.36.051c0,5.3,2.711,8.7,7.111,8.7,4.475,0,6.973-3.333,6.973-8.664,0-5.64-2.521-8.736-7.088-8.736-4.376,0-7,2.994-7,8.7" transform="translate(34.303 -1131.508)" fill="#1a1718"/>
    <path id="Path_19490" data-name="Path 19490" d="M1721.827,403.229c0,8.433-3.638,13.589-14.307,13.589-10.171,0-12.509-5.06-12.876-8.229h7.282c.672,2.166,2.537,3.5,5.91,3.5,5.779,0,7-3.184,7-8.639V401.9c-1.552,2.5-4.086,4-8.631,4-7.611,0-12.219-5.539-12.219-12.82,0-8.34,5.557-13.828,12.863-13.828,5.258,0,7.464,2.2,7.987,3.6.057-.873.236-2.52.293-2.99h6.77c-.04,2.068-.074,5.032-.074,7.558ZM1701.345,392.8c0,4.867,2.774,7.9,6.8,7.9,5.411,0,6.91-3.276,6.91-8.168,0-4.922-1.171-8.117-6.738-8.117-4.192,0-6.973,2.983-6.973,8.383" transform="translate(-112.088 -1131.509)" fill="#1a1718"/>
    <path id="Path_19491" data-name="Path 19491" d="M1879.112,320.782h7.144V327h-7.144Zm0,11.116h7.144v26.286h-7.144Z" transform="translate(-263.959 -1083.542)" fill="#1a1718"/>
    <path id="Path_19492" data-name="Path 19492" d="M1972.612,397.809c-1.1,4.428-4.552,8.955-12.922,8.955-8.836,0-13.669-5.509-13.669-13.583,0-7.651,5.122-13.931,14.054-13.931,9.474,0,12.3,6.036,12.537,9.15h-7c-.58-2.321-2.119-4.094-5.675-4.094-4.239,0-6.639,3.276-6.639,8.664,0,5.727,2.453,8.772,6.554,8.772a5.6,5.6,0,0,0,5.72-3.935Z" transform="translate(-318.849 -1131.509)" fill="#1a1718"/>
  </g>
</svg>
