<svg xmlns="http://www.w3.org/2000/svg" xmlns:xlink="http://www.w3.org/1999/xlink" width="31.721" height="31.721" viewBox="0 0 31.721 31.721">
  <defs>
    <clipPath id="clip-path">
      <path id="Icon_awesome-twitter-square" data-name="Icon awesome-twitter-square" d="M28.322,2.25H3.4A3.4,3.4,0,0,0,0,5.649V30.572a3.4,3.4,0,0,0,3.4,3.4H28.322a3.4,3.4,0,0,0,3.4-3.4V5.649A3.4,3.4,0,0,0,28.322,2.25ZM24.86,13.494c.014.2.014.4.014.6A13.122,13.122,0,0,1,11.662,27.308a13.151,13.151,0,0,1-7.13-2.082,9.783,9.783,0,0,0,1.119.057A9.311,9.311,0,0,0,11.414,23.3a4.65,4.65,0,0,1-4.34-3.222,5,5,0,0,0,2.1-.085,4.644,4.644,0,0,1-3.717-4.56v-.057a4.641,4.641,0,0,0,2.1.588A4.634,4.634,0,0,1,5.48,12.1a4.586,4.586,0,0,1,.63-2.344,13.186,13.186,0,0,0,9.573,4.857,4.654,4.654,0,0,1,7.923-4.241,9.1,9.1,0,0,0,2.946-1.119,4.632,4.632,0,0,1-2.039,2.556,9.241,9.241,0,0,0,2.676-.722A9.775,9.775,0,0,1,24.86,13.494Z" transform="translate(0 -2.25)"/>
    </clipPath>
    <linearGradient id="linear-gradient" x1="0.332" y1="0.141" x2="0.585" y2="0.682" gradientUnits="objectBoundingBox">
      <stop offset="0" stop-color="#00c3ff"/>
      <stop offset="1" stop-color="#00b0ed"/>
    </linearGradient>
    <linearGradient id="linear-gradient-2" x1="0.738" y1="0.628" x2="-0.899" y2="-0.25" gradientUnits="objectBoundingBox">
      <stop offset="0" stop-color="#00b0ed" stop-opacity="0"/>
      <stop offset="1" stop-color="#00a2ce"/>
    </linearGradient>
    <linearGradient id="linear-gradient-3" x1="0.5" y1="0.27" x2="0.5" y2="0.926" xlink:href="#linear-gradient-2"/>
    <linearGradient id="linear-gradient-4" x1="0.946" y1="0.922" x2="0.342" y2="0.273" xlink:href="#linear-gradient-2"/>
  </defs>
  <g id="twitter" clip-path="url(#clip-path)">
    <g id="twitter-2" data-name="twitter" transform="translate(0 0)">
      <path id="Path_19552" data-name="Path 19552" d="M26.047,31.178a95.811,95.811,0,0,1-20.373,0A5.776,5.776,0,0,1,.543,26.047a95.809,95.809,0,0,1,0-20.373A5.776,5.776,0,0,1,5.674.543a95.809,95.809,0,0,1,20.373,0,5.776,5.776,0,0,1,5.131,5.131,95.809,95.809,0,0,1,0,20.373,5.776,5.776,0,0,1-5.131,5.131Zm0,0" transform="translate(0 0)" fill="url(#linear-gradient)"/>
      <path id="Path_19553" data-name="Path 19553" d="M28.8,6.168a5.125,5.125,0,0,0-4.553-4.553,85.051,85.051,0,0,0-18.079,0A5.126,5.126,0,0,0,1.615,6.168a85.049,85.049,0,0,0,0,18.078A5.125,5.125,0,0,0,6.168,28.8a85.017,85.017,0,0,0,18.078,0A5.125,5.125,0,0,0,28.8,24.247a85.017,85.017,0,0,0,0-18.078Zm0,0" transform="translate(0.653 0.653)" fill="url(#linear-gradient-2)"/>
      <path id="Path_19554" data-name="Path 19554" d="M.3,16.111q.033.329.068.658A5.776,5.776,0,0,0,5.5,21.9a95.809,95.809,0,0,0,20.373,0A5.776,5.776,0,0,0,31,16.769q.035-.329.068-.658Zm0,0" transform="translate(0.174 9.278)" fill="url(#linear-gradient-3)"/>
      <path id="Path_19555" data-name="Path 19555" d="M29.511,11.877,22.926,5.293a7.858,7.858,0,0,1-1.878.786,5.373,5.373,0,0,1-.662.136A4.089,4.089,0,0,0,13.371,9.07c0,.082,0,.162.008.242a3.943,3.943,0,0,0,.074.575A11.2,11.2,0,0,1,6.524,7.117h0L5.146,5.739a4.068,4.068,0,0,0,.76,4.963,4.535,4.535,0,0,0,.345.344l.03.033a4.006,4.006,0,0,1-1.793-.5,3.967,3.967,0,0,0,1.328,2.994l1.16,1.17a2.258,2.258,0,0,1-1.016-.1,3.908,3.908,0,0,0,1.17,1.839l1.625,1.634a8.414,8.414,0,0,1-4.929,1.1l9.86,9.634a95.916,95.916,0,0,0,10.158-.543,5.776,5.776,0,0,0,5.131-5.131,95.96,95.96,0,0,0,.536-11.3Zm0,0" transform="translate(2.203 2.868)" fill="url(#linear-gradient-4)"/>
      <path id="Path_19556" data-name="Path 19556" d="M23.488,6.881a7.4,7.4,0,0,1-2.109.586l-.009-.049a3.925,3.925,0,0,0,1.556-2.124,7.858,7.858,0,0,1-1.878.786,5.42,5.42,0,0,1-.662.136A4.089,4.089,0,0,0,13.371,9.07c0,.081,0,.162.008.242a3.943,3.943,0,0,0,.074.575A11.428,11.428,0,0,1,5.146,5.739a4.044,4.044,0,0,0,1.24,5.346,4.263,4.263,0,0,1-1.9-.5,4.089,4.089,0,0,0,3.331,4.029,3.868,3.868,0,0,1-1.86.039,3.943,3.943,0,0,0,3.719,2.828,8.147,8.147,0,0,1-5.852,1.742A11.554,11.554,0,0,0,21.549,9.451q0-.119,0-.239c0-.047,0-.094,0-.142s0-.066,0-.1a7.229,7.229,0,0,0,1.941-2.089Zm0,0" transform="translate(2.203 2.868)" fill="#fff"/>
    </g>
  </g>
</svg>
